<?xml version="1.0" encoding="UTF-8" standalone="no"?>
<svg
   xmlns:dc="http://purl.org/dc/elements/1.1/"
   xmlns:cc="http://creativecommons.org/ns#"
   xmlns:rdf="http://www.w3.org/1999/02/22-rdf-syntax-ns#"
   xmlns:svg="http://www.w3.org/2000/svg"
   xmlns="http://www.w3.org/2000/svg"
   xmlns:xlink="http://www.w3.org/1999/xlink"
   viewBox="0 0 24 24"
   class="icon-cheveron-selection"
   version="1.1"
   id="svg4">
  <metadata
     id="metadata10">
    <rdf:RDF>
      <cc:Work
         rdf:about="">
        <dc:format>image/svg+xml</dc:format>
        <dc:type
           rdf:resource="http://purl.org/dc/dcmitype/StillImage" />
        <dc:title></dc:title>
      </cc:Work>
    </rdf:RDF>
  </metadata>
  <defs
     id="defs8">
    <linearGradient
       id="linearGradient923">
      <stop
         style="stop-color:#1b2229;stop-opacity:1;"
         offset="0"
         id="stop919" />
      <stop
         style="stop-color:#27313b;stop-opacity:1"
         offset="1"
         id="stop921" />
    </linearGradient>
    <linearGradient
       gradientTransform="matrix(1.1144309,0,0,1.1144309,-1.3731707,-1.3731707)"
       xlink:href="#linearGradient923"
       id="linearGradient925"
       x1="6.2328849"
       y1="20.701008"
       x2="16.688478"
       y2="3.5147185"
       gradientUnits="userSpaceOnUse" />
    <filter
       id="filter858"
       style="color-interpolation-filters:sRGB;">
      <feOffset
         id="feOffset848"
         dx="0"
         dy="0" />
      <feGaussianBlur
         id="feGaussianBlur850"
         result="blur"
         stdDeviation="0.85737288135593215" />
      <feFlood
         stdDeviation="0.85999999999999999"
         id="feFlood852"
         result="flood"
         flood-opacity="1"
         flood-color="rgb(159,179,200)" />
      <feComposite
         id="feComposite854"
         result="composite"
         operator="in"
         in2="SourceGraphic"
         in="flood" />
      <feBlend
         id="feBlend856"
         mode="normal"
         in2="composite"
         in="blur" />
    </filter>
  </defs>
  <circle
     style="opacity:1;fill:url(#linearGradient925);fill-opacity:1;stroke:#9fb3c8;stroke-width:1.671;stroke-miterlimit:4;stroke-dasharray:none;stroke-dashoffset:0;stroke-opacity:1"
     id="path857"
     cx="12"
     cy="12"
     r="11.099085" />
  <path
     class="secondary"
     d="M 9.6469559,6.927722 C 9.1584658,7.5790412 7.9973748,6.4179506 8.6486948,5.9294608 L 11.500869,3.0772863 c 0.277263,-0.2717716 0.720999,-0.2717716 0.998262,0 l 2.852174,2.8521745 c 0.65132,0.4884898 -0.509771,1.6495804 -0.998261,0.9982612 L 12,4.5889388 9.6469559,6.9419828 Z"
     id="path2"
     style="fill:#cbe4ff;fill-opacity:1;fill-rule:evenodd;stroke-width:0.71304363" />
  <path
     id="path835"
     d="m 14.353044,17.072279 c 0.659647,-0.494736 1.492996,0.338613 0.998261,0.998261 l -2.852174,2.852175 c -0.277263,0.271771 -0.720999,0.271771 -0.998262,0 L 8.6486948,18.07054 C 8.1539594,17.410892 8.9873086,16.577543 9.6469559,17.072279 L 12,19.418192 14.353044,17.065148 Z"
     class="secondary"
     style="fill:#cbe4ff;fill-opacity:1;fill-rule:evenodd;stroke-width:0.71304363" />
  <path
     style="fill:#cbe4ff;fill-opacity:1;fill-rule:evenodd;stroke-width:0.71304363"
     id="path851"
     d="m 17.072278,9.6469564 c -0.651319,-0.4884901 0.509771,-1.6495812 0.998261,-0.998261 l 2.852175,2.8521746 c 0.271771,0.277263 0.271771,0.720998 0,0.998262 l -2.852175,2.852174 c -0.48849,0.65132 -1.64958,-0.509771 -0.998261,-0.998261 l 2.338783,-2.353044 -2.353044,-2.3530446 z"
     class="secondary" />
  <path
     style="fill:#cbe4ff;fill-opacity:1;fill-rule:evenodd;stroke-width:0.71304363"
     class="secondary"
     d="m 6.9277215,14.353045 c 0.4947353,0.659647 -0.3386138,1.492996 -0.9982611,0.998261 L 3.0772858,12.499132 c -0.2717716,-0.277264 -0.2717716,-0.720999 0,-0.998262 L 5.9294604,8.6486954 c 0.6596473,-0.4947356 1.4929964,0.3386138 0.9982611,0.998261 l -2.3459136,2.3530446 2.353044,2.353044 z"
     id="path853" />
  <circle
     style="opacity:1;fill:#cbe4ff;fill-opacity:1;stroke:none;stroke-width:7.22098303;stroke-miterlimit:4;stroke-dasharray:none;stroke-dashoffset:0;stroke-opacity:0.97777776"
     id="path855"
     cx="12"
     cy="12"
     r="1.6342081" />
</svg>
